<?xml version="1.0" encoding="UTF-8"?>
<svg xmlns="http://www.w3.org/2000/svg" xmlns:xlink="http://www.w3.org/1999/xlink" width="16pt" height="16pt" viewBox="0 0 16 16" version="1.1">
<defs>
<filter id="alpha" filterUnits="objectBoundingBox" x="0%" y="0%" width="100%" height="100%">
  <feColorMatrix type="matrix" in="SourceGraphic" values="0 0 0 0 1 0 0 0 0 1 0 0 0 0 1 0 0 0 1 0"/>
</filter>
<mask id="mask0">
  <g filter="url(#alpha)">
<rect x="0" y="0" width="16" height="16" style="fill:rgb(0%,0%,0%);fill-opacity:0.2;stroke:none;"/>
  </g>
</mask>
<clipPath id="clip1">
  <rect x="0" y="0" width="16" height="16"/>
</clipPath>
<g id="surface5" clip-path="url(#clip1)">
<path style=" stroke:none;fill-rule:nonzero;fill:rgb(0%,0%,0%);fill-opacity:1;" d="M 3.625 2 C 3.277344 2 3 2.277344 3 2.625 L 3 13.875 C 3 14.222656 3.277344 14.5 3.625 14.5 L 12.375 14.5 C 12.722656 14.5 13 14.222656 13 13.875 L 13 5.75 L 9.5625 5.4375 L 9.25 2 Z M 3.625 2 "/>
</g>
<mask id="mask1">
  <g filter="url(#alpha)">
<rect x="0" y="0" width="16" height="16" style="fill:rgb(0%,0%,0%);fill-opacity:0.2;stroke:none;"/>
  </g>
</mask>
<clipPath id="clip2">
  <rect x="0" y="0" width="16" height="16"/>
</clipPath>
<g id="surface8" clip-path="url(#clip2)">
<path style=" stroke:none;fill-rule:nonzero;fill:rgb(0%,0%,0%);fill-opacity:1;" d="M 9.25 2 L 9.25 5.125 C 9.25 5.46875 9.53125 5.75 9.875 5.75 L 13 5.75 Z M 9.25 2 "/>
</g>
<mask id="mask2">
  <g filter="url(#alpha)">
<rect x="0" y="0" width="16" height="16" style="fill:rgb(0%,0%,0%);fill-opacity:0.2;stroke:none;"/>
  </g>
</mask>
<clipPath id="clip3">
  <rect x="0" y="0" width="16" height="16"/>
</clipPath>
<g id="surface11" clip-path="url(#clip3)">
<path style=" stroke:none;fill-rule:nonzero;fill:rgb(0%,0%,0%);fill-opacity:1;" d="M 10.25 7 C 9.835938 7 9.5 7.335938 9.5 7.75 C 9.5 8.164062 9.835938 8.5 10.25 8.5 C 10.664062 8.5 11 8.164062 11 7.75 C 11 7.335938 10.664062 7 10.25 7 Z M 7.5 8 C 6.121094 8 5 9.121094 5 10.5 C 5 11.878906 6.121094 13 7.5 13 C 8.878906 13 10 11.878906 10 10.5 C 10 9.121094 8.878906 8 7.5 8 Z M 8.5 8.75 C 8.914062 8.75 9.25 9.085938 9.25 9.5 C 9.25 9.914062 8.914062 10.25 8.5 10.25 C 8.085938 10.25 7.75 9.914062 7.75 9.5 C 7.75 9.085938 8.085938 8.75 8.5 8.75 Z M 8.5 8.75 "/>
</g>
<mask id="mask3">
  <g filter="url(#alpha)">
<rect x="0" y="0" width="16" height="16" style="fill:rgb(0%,0%,0%);fill-opacity:0.101961;stroke:none;"/>
  </g>
</mask>
<clipPath id="clip4">
  <rect x="0" y="0" width="16" height="16"/>
</clipPath>
<g id="surface14" clip-path="url(#clip4)">
<path style=" stroke:none;fill-rule:nonzero;fill:rgb(100%,100%,100%);fill-opacity:1;" d="M 3.625 1.75 C 3.277344 1.75 3 2.027344 3 2.375 L 3 2.625 C 3 2.277344 3.277344 2 3.625 2 L 9.25 2 C 9.25 1.75 9.25 2 9.25 1.75 Z M 3.625 1.75 "/>
</g>
</defs>
<g id="surface1">
<use xlink:href="#surface5" mask="url(#mask0)"/>
<path style=" stroke:none;fill-rule:nonzero;fill:rgb(19.215686%,31.764706%,60.784314%);fill-opacity:1;" d="M 3.625 1.75 C 3.277344 1.75 3 2.027344 3 2.375 L 3 13.625 C 3 13.972656 3.277344 14.25 3.625 14.25 L 12.375 14.25 C 12.722656 14.25 13 13.972656 13 13.625 L 13 5.5 L 9.5625 5.1875 L 9.25 1.75 Z M 3.625 1.75 "/>
<use xlink:href="#surface8" mask="url(#mask1)"/>
<path style=" stroke:none;fill-rule:nonzero;fill:rgb(59.607843%,65.882353%,80.392157%);fill-opacity:1;" d="M 9.25 1.75 L 9.25 4.875 C 9.25 5.21875 9.53125 5.5 9.875 5.5 L 13 5.5 Z M 9.25 1.75 "/>
<use xlink:href="#surface11" mask="url(#mask2)"/>
<path style=" stroke:none;fill-rule:nonzero;fill:rgb(100%,100%,100%);fill-opacity:1;" d="M 10.25 6.75 C 9.835938 6.75 9.5 7.085938 9.5 7.5 C 9.5 7.914062 9.835938 8.25 10.25 8.25 C 10.664062 8.25 11 7.914062 11 7.5 C 11 7.085938 10.664062 6.75 10.25 6.75 Z M 7.5 7.75 C 6.121094 7.75 5 8.871094 5 10.25 C 5 11.628906 6.121094 12.75 7.5 12.75 C 8.878906 12.75 10 11.628906 10 10.25 C 10 8.871094 8.878906 7.75 7.5 7.75 Z M 8.5 8.5 C 8.914062 8.5 9.25 8.835938 9.25 9.25 C 9.25 9.664062 8.914062 10 8.5 10 C 8.085938 10 7.75 9.664062 7.75 9.25 C 7.75 8.835938 8.085938 8.5 8.5 8.5 Z M 8.5 8.5 "/>
<use xlink:href="#surface14" mask="url(#mask3)"/>
</g>
</svg>
